# Blender v2.91.0 OBJ File: 'untitled.blend'
# www.blender.org
mtllib snow.mtl
o Sphere.003
v 1.256402 1.100847 10.734520
v 1.256866 1.103764 10.736292
v 1.254381 1.104765 10.736344
v 1.253455 1.102344 10.735376
v 1.254132 1.106710 10.735579
v 1.254355 1.100616 10.733531
v 1.251925 1.104009 10.734323
v 1.251630 1.105667 10.732439
v 1.254071 1.108180 10.733393
v 1.252019 1.102233 10.731794
v 1.252568 1.106182 10.730202
v 1.253423 1.103416 10.728946
v 1.254271 1.100913 10.730638
v 1.255288 1.103547 10.728337
v 1.255294 1.108450 10.731791
v 1.257042 1.102319 10.729122
v 1.255133 1.106990 10.729251
v 1.257222 1.105612 10.728841
v 1.256340 1.100441 10.731438
v 1.258609 1.102035 10.730969
v 1.259439 1.105120 10.730824
v 1.257965 1.107497 10.730965
v 1.259474 1.104493 10.733962
v 1.258648 1.101807 10.733580
v 1.257696 1.107683 10.733663
v 1.257620 1.106371 10.735400
vt 0.827247 0.811383
vt 0.804071 0.544218
vt 0.652882 0.664370
vt 0.608795 0.860754
vt 0.734375 1.000000
vt 0.702279 0.471674
vt 0.570091 0.517255
vt 0.680720 0.309712
vt 0.502420 0.401904
vt 0.473272 0.663288
vt 0.594211 0.175775
vt 0.399088 0.361369
vt 0.585427 0.074202
vt 0.339916 0.571809
vt 0.270653 0.283141
vt 0.352620 0.815540
vt 0.259675 0.563607
vt 0.185728 0.401903
vt 0.180802 0.654772
vt 0.085170 0.234428
vt 0.070316 0.695143
vt 0.184898 0.893619
vt 1.000000 0.334687
vt 0.907378 0.207006
vt 0.943585 0.488329
vt 0.996354 0.174786
vt 0.000000 0.725079
vt 0.058578 0.450163
vt 0.000000 0.479867
vt 0.235909 0.074785
vt 0.845200 0.344076
vt 0.945930 0.046024
vt 0.985236 0.918502
vt 0.941907 0.713127
vn -0.0144 -0.5175 0.8556
vn 0.0496 -0.9903 0.1297
vn -0.2100 -0.7624 0.6120
vn -0.6200 -0.0751 0.7810
vn -0.7749 0.4095 0.4815
vn -0.6823 -0.6693 0.2942
vn -0.6879 0.7152 -0.1238
vn -0.5218 0.8117 -0.2624
vn -0.9193 -0.0304 -0.3924
vn -0.8843 -0.0635 -0.4625
vn -0.4084 0.2698 -0.8721
vn -0.2116 -0.5954 -0.7751
vn -0.0214 0.2555 -0.9666
vn 0.3480 -0.0987 -0.9323
vn 0.2991 0.6592 -0.6899
vn 0.4337 -0.7595 -0.4848
vn 0.8667 0.4909 0.0886
vn 0.8500 0.5244 0.0487
vn -0.1131 -0.3311 0.9368
vn -0.6589 0.2006 0.7250
vn 0.9605 -0.2734 -0.0529
vn -0.7292 0.5583 0.3957
vn -0.7899 -0.5152 0.3326
vn -0.9915 -0.1212 0.0482
vn -0.5314 -0.8441 -0.0714
vn -0.1866 -0.9778 -0.0952
vn -0.6145 -0.5740 -0.5413
vn -0.4134 0.8007 -0.4336
vn -0.3163 0.2300 -0.9204
vn -0.0992 -0.6326 -0.7681
vn 0.0602 -0.7840 -0.6179
vn 0.1500 0.8531 -0.4997
vn 0.6508 0.4404 -0.6185
vn 0.6509 -0.0998 -0.7526
vn 0.7251 -0.2260 -0.6505
vn 0.5618 -0.8233 -0.0803
vn 0.0881 0.8125 0.5763
vn 0.3266 0.9446 -0.0326
vn 0.4290 -0.8966 0.1097
vn 0.7867 0.4757 0.3934
vn 0.6539 0.0687 0.7535
vn 0.5082 -0.5048 0.6978
vn 0.6807 -0.3041 0.6665
vn 0.1103 0.3290 0.9379
vn 0.1133 0.9620 0.2485
usemtl None
s off
f 1/1/1 2/2/1 4/3/1
f 1/1/2 6/4/2 19/5/2
f 6/4/3 1/1/3 4/3/3
f 3/6/4 7/7/4 4/3/4
f 7/7/5 5/8/5 8/9/5
f 6/4/6 4/3/6 10/10/6
f 8/9/7 9/11/7 11/12/7
f 9/11/8 15/13/8 11/12/8
f 10/10/9 8/9/9 11/12/9
f 10/10/10 11/12/10 12/14/10
f 12/14/11 11/12/11 17/15/11
f 13/16/12 12/14/12 14/17/12
f 14/17/13 17/15/13 18/18/13
f 16/19/14 14/17/14 18/18/14
f 18/18/15 17/15/15 22/20/15
f 16/19/16 20/21/16 19/22/16
f 21/23/17 25/24/17 23/25/17
f 21/23/18 22/26/18 25/24/18
f 2/2/19 3/6/19 4/3/19
f 3/6/20 5/8/20 7/7/20
f 24/27/21 20/21/21 21/28/21 23/29/21
f 9/11/22 8/9/22 5/8/22
f 4/3/23 7/7/23 10/10/23
f 7/7/24 8/9/24 10/10/24
f 6/4/25 10/10/25 13/16/25
f 6/4/26 13/16/26 19/22/26
f 10/10/27 12/14/27 13/16/27
f 15/13/28 17/15/28 11/12/28
f 12/14/29 17/15/29 14/17/29
f 13/16/30 14/17/30 16/19/30
f 16/19/31 19/22/31 13/16/31
f 15/30/32 22/20/32 17/15/32
f 18/18/33 22/20/33 21/28/33
f 18/18/34 21/28/34 16/19/34
f 21/28/35 20/21/35 16/19/35
f 20/21/36 24/27/36 19/22/36
f 9/11/37 5/8/37 26/31/37 25/24/37
f 22/26/38 15/32/38 25/24/38
f 19/33/39 24/34/39 1/1/39
f 25/24/40 26/31/40 23/25/40
f 23/25/41 26/31/41 2/2/41
f 24/34/42 2/2/42 1/1/42
f 23/25/43 2/2/43 24/34/43
f 5/8/44 3/6/44 2/2/44 26/31/44
f 15/32/45 9/11/45 25/24/45
